arm26_elbow_motion
version=1
nRows=476
nColumns=2
inDegrees=no
endheader
time	r_elbow_flex
37.152221	1.87735042
37.160062	1.92310497
37.184378	1.96572175
37.235444	2.00606423
37.254687	2.04222891
37.271586	2.07416158
37.289921	2.10222455
37.302056	2.12657590
37.311282	2.14701253
37.322920	2.16092016
37.332234	2.16759876
37.338039	2.16934221
37.350615	2.16728725
37.355148	2.16071736
37.385283	2.14912274
37.393612	2.13212250
37.418659	2.11038478
37.438480	2.08304560
37.451963	2.04855233
37.460199	2.00664304
37.485137	1.95899622
37.502023	1.90759182
37.518566	1.85340899
37.526961	1.79621216
37.535266	1.73735072
37.595997	1.67973953
37.619041	1.62204072
37.627764	1.56143620
37.638531	1.49962647
37.652211	1.43759136
37.683496	1.37570271
37.691700	1.31249444
37.716017	1.24653018
37.737235	1.18008387
37.750722	1.11626126
37.760368	1.05334725
37.769595	0.98865091
37.785271	0.92193383
37.809700	0.85457087
37.820857	0.78870815
37.827947	0.72651685
37.838118	0.66828858
37.861350	0.61338681
37.871423	0.56530419
37.882607	0.52496298
37.893941	0.49058074
37.918951	0.46290532
37.952820	0.44114298
37.967260	0.42240149
37.971634	0.40723137
38.001409	0.39624339
38.012706	0.38933735
38.021546	0.38722374
38.037530	0.38790631
38.047244	0.39107532
38.055038	0.39916050
38.073395	0.41174968
38.119245	0.42704956
38.137688	0.44589612
38.151778	0.46954644
38.163135	0.49834533
38.189346	0.53181404
38.201769	0.56974203
38.219000	0.61225135
38.234655	0.65934422
38.251893	0.71088130
38.259196	0.76663029
38.285142	0.82573114
38.299693	0.88765203
38.309441	0.95247965
38.333177	1.02040708
38.380094	1.09109098
38.397700	1.16305986
38.404715	1.23566361
38.414249	1.30888512
38.426864	1.38107285
38.450657	1.45078756
38.460057	1.51783788
38.468101	1.58307421
38.482202	1.64586868
38.498181	1.70464264
38.515793	1.75977632
38.536901	1.81243974
38.555360	1.86404176
38.564256	1.91446390
38.586472	1.96284724
38.596792	2.01174516
38.613068	2.06216066
38.628511	2.11171411
38.638883	2.15747572
38.655145	2.19626483
38.663641	2.22654373
38.705326	2.24787420
38.714108	2.25869331
38.722960	2.25969398
38.768897	2.25279824
38.787513	2.24130773
38.795371	2.22735936
38.805652	2.21122737
38.819247	2.19216586
38.835402	2.16850317
38.845736	2.13974283
38.855110	2.10607562
38.863979	2.06861064
38.880556	2.02827912
38.920830	1.98374366
38.936827	1.93436958
38.947388	1.88432995
38.963338	1.83720080
38.987741	1.79263055
39.004212	1.74615023
39.020799	1.69177147
39.028487	1.63148430
39.061509	1.57269952
39.119499	1.51436116
39.135378	1.44045246
39.147171	1.35997167
39.157509	1.27558860
39.171462	1.19310545
39.182258	1.11256140
39.202095	1.02798117
39.211312	0.93806264
39.220296	0.85789276
39.226642	0.78124703
39.237529	0.71032988
39.251677	0.64701453
39.268149	0.59134151
39.276150	0.54314647
39.300047	0.50365026
39.320362	0.47184955
39.340627	0.44577346
39.351877	0.42441099
39.369671	0.40673986
39.386544	0.39371104
39.401858	0.38556240
39.418773	0.38204240
39.436312	0.38269545
39.455146	0.38634135
39.469914	0.39224179
39.479225	0.39962347
39.501366	0.40883643
39.518312	0.42106477
39.526777	0.43581387
39.538985	0.45334298
39.552124	0.47512246
39.584819	0.50243381
39.635482	0.53641311
39.649565	0.57652556
39.668945	0.62205677
39.704024	0.67358166
39.720158	0.72961975
39.730438	0.79033296
39.747400	0.85287148
39.757017	0.91716768
39.774495	0.98259125
39.778907	1.04933092
39.862984	1.11723172
39.890425	1.18712872
39.917968	1.24848947
39.939137	1.33706414
39.949321	1.44607002
39.964674	1.55146263
39.984344	1.65263045
39.994985	1.74842407
40.005400	1.83808601
40.016966	1.93263622
40.034582	1.99914123
40.042009	2.04313413
40.066931	2.08719691
40.081603	2.13043880
40.097051	2.17167258
40.107300	2.20907877
40.113901	2.23933079
40.122370	2.26038463
40.137740	2.27106595
40.169230	2.27257247
40.179959	2.26582104
40.195836	2.25230051
40.222373	2.23398375
40.241385	2.21197678
40.253059	2.18591004
40.259374	2.15348387
40.274598	2.11418853
40.284664	2.07057722
40.301565	2.02390715
40.310374	1.97386550
40.319769	1.91942470
40.354801	1.86201702
40.370788	1.80492927
40.381344	1.74872545
40.400152	1.68706009
40.416043	1.62057595
40.438226	1.54987571
40.452039	1.47805874
40.469870	1.40451242
40.486459	1.32908278
40.497136	1.25219825
40.506560	1.17746956
40.531847	1.10312290
40.617895	1.02955275
40.627495	0.94653680
40.637497	0.86745850
40.652943	0.79344560
40.669513	0.72480960
40.686069	0.66218285
40.695374	0.60566784
40.704892	0.55523754
40.721039	0.51988908
40.736907	0.48814009
40.751844	0.46001770
40.768085	0.43618807
40.784630	0.41723810
40.801063	0.40333153
40.816902	0.39439421
40.826904	0.39058209
40.858781	0.39079602
40.874831	0.39388105
40.884293	0.39889838
40.891814	0.40594110
40.901047	0.41603671
40.917613	0.43006163
40.967661	0.44837849
40.986572	0.47158463
41.005547	0.50041008
41.020054	0.54363108
41.038280	0.59319442
41.051600	0.64847282
41.059263	0.70896959
41.068455	0.77448644
41.084456	0.84459359
41.115828	0.91843864
41.123956	0.98675997
41.135188	1.05676961
41.151653	1.12808049
41.165163	1.20004214
41.176003	1.27208836
41.199733	1.34356981
41.208092	1.41372801
41.232518	1.48263018
41.258300	1.55093673
41.269114	1.61823176
41.279664	1.68372560
41.303402	1.74842007
41.311081	1.81028649
41.321192	1.86809483
41.344723	1.92240647
41.354239	1.97331658
41.371715	2.02199860
41.403041	2.06849328
41.412102	2.11110932
41.427300	2.14972610
41.441354	2.18384389
41.462975	2.21150451
41.470203	2.23033554
41.500737	2.23853503
41.508421	2.23620664
41.534756	2.22336439
41.550882	2.20142591
41.570112	2.17191284
41.585220	2.13523766
41.602465	2.09246360
41.651190	2.04363235
41.666186	1.99593314
41.672430	1.94749241
41.683217	1.89668278
41.703093	1.84229466
41.734286	1.78729187
41.752834	1.73442493
41.760272	1.68011423
41.768681	1.61827403
41.784662	1.53987669
41.792802	1.46095777
41.803713	1.38515063
41.828179	1.30974320
41.851812	1.23068582
41.869262	1.15112724
41.884565	1.07049335
41.896344	1.00125382
41.919315	0.92036557
41.933408	0.83857812
41.942076	0.75825289
41.973698	0.68354085
41.997857	0.61708150
42.006547	0.55996298
42.049802	0.51290382
42.072495	0.48661511
42.091829	0.46871149
42.104424	0.45705129
42.120371	0.44958818
42.130755	0.44604388
42.140146	0.44651723
42.155685	0.44992868
42.170273	0.45564505
42.181357	0.46451480
42.200385	0.47762915
42.208782	0.49527579
42.223450	0.51734661
42.243831	0.54407768
42.253802	0.57632863
42.270462	0.61493049
42.304174	0.66046758
42.319310	0.71406474
42.337006	0.77592812
42.352618	0.84412770
42.358644	0.91617322
42.367560	0.99031194
42.400330	1.06574727
42.419176	1.14280411
42.426119	1.22048989
42.468689	1.29756925
42.479962	1.37347243
42.488665	1.44824622
42.496338	1.52329080
42.521278	1.60030134
42.533579	1.67811517
42.550736	1.75232600
42.560048	1.82265440
42.583854	1.89218862
42.598980	1.96150204
42.604194	2.02607566
42.633730	2.08177219
42.652691	2.12587575
42.657279	2.16012666
42.672519	2.18461632
42.690778	2.19699792
42.717612	2.19810215
42.723734	2.19148912
42.750823	2.17950050
42.757864	2.16498134
42.784590	2.14972285
42.791370	2.13361760
42.817253	2.11632974
42.829412	2.09689485
42.852067	2.07441124
42.868110	2.04785882
42.883767	2.01618614
42.900452	1.97990492
42.917122	1.93976292
42.937670	1.89643921
42.944028	1.85070650
42.960389	1.80461641
42.969303	1.75850681
42.986532	1.71099551
43.002866	1.66037634
43.020421	1.60531566
43.070863	1.54860281
43.075951	1.49157238
43.117921	1.43209166
43.124657	1.36880596
43.134567	1.30342959
43.168777	1.23724837
43.184930	1.17130072
43.202081	1.10414324
43.218528	1.03388830
43.228105	0.96270188
43.236953	0.89296303
43.251679	0.82601263
43.262850	0.76385333
43.276809	0.70797778
43.296424	0.65750349
43.312671	0.61442638
43.334057	0.57890837
43.342717	0.55070816
43.353663	0.52872705
43.369251	0.51112007
43.377563	0.49665458
43.402731	0.48594324
43.437034	0.47836198
43.453563	0.47320626
43.470171	0.47040084
43.514897	0.47094206
43.527751	0.47573918
43.544821	0.48562729
43.553807	0.50087262
43.569050	0.52074910
43.579120	0.54441663
43.603549	0.57189572
43.620154	0.60344668
43.636896	0.63913036
43.644926	0.67814237
43.657330	0.71977155
43.663458	0.76373278
43.683668	0.80985951
43.691738	0.85762784
43.699499	0.90637065
43.735530	0.95564908
43.751336	1.00574125
43.767362	1.05698167
43.785455	1.11021551
43.793530	1.16574163
43.803533	1.22326917
43.820144	1.28282868
43.902688	1.34395780
43.919796	1.41766173
43.934477	1.49397797
43.943436	1.57118329
43.955721	1.64672939
43.969643	1.72150777
43.973636	1.79581458
43.981371	1.87068841
43.999847	1.93250031
44.020051	1.98873256
44.026771	2.03898899
44.050801	2.08364317
44.068138	2.11965169
44.074810	2.14445899
44.098312	2.15502339
44.106124	2.15265820
44.116257	2.13887053
44.158048	2.11435723
44.170530	2.08025070
44.177420	2.03868653
44.233299	1.99141327
44.241367	1.94056523
44.252883	1.88841062
44.262431	1.83641331
44.269998	1.78437387
44.283345	1.73021154
44.300012	1.67165840
44.328061	1.61147187
44.351337	1.55006236
44.367116	1.48574591
44.374943	1.41601840
44.407156	1.34195184
44.461920	1.26743062
44.488540	1.19427887
44.502029	1.10732800
44.516030	1.01012747
44.525829	0.91485437
44.545569	0.82476601
44.550184	0.74198101
44.565291	0.66666641
44.581109	0.59979428
44.589065	0.55452322
44.605390	0.52724658
44.647813	0.50644789
44.663525	0.49069335
44.672003	0.47872505
44.696795	0.46989673
44.717373	0.46407271
44.733136	0.46115725
44.742834	0.46147078
44.750444	0.46487250
44.766731	0.47174988
44.784551	0.48236185
44.793888	0.49833802
44.810092	0.52101882
44.828453	0.55078553
44.842262	0.58807029
44.858051	0.63411197
44.877565	0.68864983
44.883880	0.75009093
44.893930	0.81531810
44.900259	0.88248879
44.981679	0.95233114
44.998119	1.02424335
45.007613	1.11204781
45.033067	1.20000399
45.040395	1.28806090
45.049113	1.37745289
45.068074	1.46980299
45.074799	1.56420549
45.086747	1.65585892
45.100505	1.72849805
45.108316	1.79963926
45.117787	1.87241366
45.127476	1.94601897
45.170115	2.01709171
45.179603	2.08158297
45.190724	2.14010734
45.211101	2.18977861
45.227023	2.22557508
45.253072	2.24257355
45.260284	2.24069559
45.275860	2.22204278
45.286447	2.18937552
